<svg width="24" height="24" viewBox="0 0 24 24" fill="none" xmlns="http://www.w3.org/2000/svg">
<circle cx="12" cy="12" r="8.1" stroke="#1669A1" stroke-width="1.8"/>
<path d="M11.255 7.75C11.255 7.33579 11.5908 7 12.005 7C12.4192 7 12.755 7.33579 12.755 7.75V16.25C12.755 16.6642 12.4192 17 12.005 17C11.5908 17 11.255 16.6642 11.255 16.25V7.75Z" fill="#1669A1"/>
<path d="M7.8 12.7913C7.35817 12.7913 7 12.4331 7 11.9913C7 11.5495 7.35817 11.1913 7.8 11.1913L16.2 11.1913C16.6418 11.1913 17 11.5495 17 11.9913C17 12.4331 16.6418 12.7913 16.2 12.7913L7.8 12.7913Z" fill="#1669A1"/>
</svg>