<svg width="22" height="21" viewBox="0 0 22 21" fill="none" xmlns="http://www.w3.org/2000/svg">
<path d="M21.12 1.88571H16.5V0.209524C16.5 0.0942857 16.401 0 16.28 0H14.74C14.619 0 14.52 0.0942857 14.52 0.209524V1.88571H7.48V0.209524C7.48 0.0942857 7.381 0 7.26 0H5.72C5.599 0 5.5 0.0942857 5.5 0.209524V1.88571H0.88C0.39325 1.88571 0 2.26024 0 2.72381V20.1143C0 20.5779 0.39325 20.9524 0.88 20.9524H21.12C21.6068 20.9524 22 20.5779 22 20.1143V2.72381C22 2.26024 21.6068 1.88571 21.12 1.88571ZM20.02 19.0667H1.98V9.11429H20.02V19.0667ZM1.98 7.33333V3.77143H5.5V5.02857C5.5 5.14381 5.599 5.2381 5.72 5.2381H7.26C7.381 5.2381 7.48 5.14381 7.48 5.02857V3.77143H14.52V5.02857C14.52 5.14381 14.619 5.2381 14.74 5.2381H16.28C16.401 5.2381 16.5 5.14381 16.5 5.02857V3.77143H20.02V7.33333H1.98Z" fill="#BDBDBD"/>
</svg>