<svg width="18" height="16" viewBox="0 0 18 16" fill="none" xmlns="http://www.w3.org/2000/svg">
<path d="M17.28 1.44H13.5V0.16C13.5 0.072 13.419 0 13.32 0H12.06C11.961 0 11.88 0.072 11.88 0.16V1.44H6.12V0.16C6.12 0.072 6.039 0 5.94 0H4.68C4.581 0 4.5 0.072 4.5 0.16V1.44H0.72C0.32175 1.44 0 1.726 0 2.08V15.36C0 15.714 0.32175 16 0.72 16H17.28C17.6783 16 18 15.714 18 15.36V2.08C18 1.726 17.6783 1.44 17.28 1.44ZM16.38 14.56H1.62V6.96H16.38V14.56ZM1.62 5.6V2.88H4.5V3.84C4.5 3.928 4.581 4 4.68 4H5.94C6.039 4 6.12 3.928 6.12 3.84V2.88H11.88V3.84C11.88 3.928 11.961 4 12.06 4H13.32C13.419 4 13.5 3.928 13.5 3.84V2.88H16.38V5.6H1.62Z" fill="white"/>
</svg>