<svg width="22" height="22" viewBox="0 0 22 22" fill="none" xmlns="http://www.w3.org/2000/svg">
<path d="M21.12 2.40952H16.5V0.733333C16.5 0.618095 16.401 0.523809 16.28 0.523809H14.74C14.619 0.523809 14.52 0.618095 14.52 0.733333V2.40952H7.48V0.733333C7.48 0.618095 7.381 0.523809 7.26 0.523809H5.72C5.599 0.523809 5.5 0.618095 5.5 0.733333V2.40952H0.88C0.39325 2.40952 0 2.78405 0 3.24762V20.6381C0 21.1017 0.39325 21.4762 0.88 21.4762H21.12C21.6068 21.4762 22 21.1017 22 20.6381V3.24762C22 2.78405 21.6068 2.40952 21.12 2.40952ZM20.02 19.5905H1.98V9.63809H20.02V19.5905ZM1.98 7.85714V4.29524H5.5V5.55238C5.5 5.66762 5.599 5.7619 5.72 5.7619H7.26C7.381 5.7619 7.48 5.66762 7.48 5.55238V4.29524H14.52V5.55238C14.52 5.66762 14.619 5.7619 14.74 5.7619H16.28C16.401 5.7619 16.5 5.66762 16.5 5.55238V4.29524H20.02V7.85714H1.98Z" fill="#1669A1"/>
</svg>