<svg width="25" height="25" viewBox="0 0 25 25" fill="none" xmlns="http://www.w3.org/2000/svg">
<path fill-rule="evenodd" clip-rule="evenodd" d="M25 12.5C25 19.4036 19.4036 25 12.5 25C5.59644 25 0 19.4036 0 12.5C0 5.59644 5.59644 0 12.5 0C19.4036 0 25 5.59644 25 12.5ZM16.7178 6.76073C17.1379 6.34059 17.8191 6.34059 18.2392 6.76073C18.6594 7.18087 18.6594 7.86205 18.2392 8.28219L14.0215 12.5L18.2393 16.7178C18.6594 17.1379 18.6594 17.8191 18.2393 18.2393C17.8191 18.6594 17.1379 18.6594 16.7178 18.2393L12.5 14.0215L8.28218 18.2393C7.86204 18.6594 7.18086 18.6594 6.76072 18.2393C6.34058 17.8191 6.34058 17.1379 6.76072 16.7178L10.9785 12.5L6.76073 8.28218C6.34059 7.86204 6.34059 7.18086 6.76073 6.76072C7.18087 6.34058 7.86205 6.34058 8.28219 6.76072L12.5 10.9785L16.7178 6.76073Z" fill="#C51620"/>
</svg>