<svg width="26" height="25" viewBox="0 0 26 25" fill="none" xmlns="http://www.w3.org/2000/svg">
<path fill-rule="evenodd" clip-rule="evenodd" d="M12.502 25C19.4055 25 25.002 19.4036 25.002 12.5C25.002 5.59644 19.4055 0 12.502 0C5.59839 0 0.00195312 5.59644 0.00195312 12.5C0.00195312 19.4036 5.59839 25 12.502 25ZM18.8903 9.39594C19.2471 8.97434 19.1945 8.34336 18.7729 7.98661C18.3513 7.62987 17.7203 7.68245 17.3636 8.10406L11.1297 15.4714L8.14214 12.9818C7.71786 12.6282 7.0873 12.6855 6.73373 13.1098C6.38017 13.5341 6.43749 14.1647 6.86177 14.5182L10.6118 17.6432C11.0338 17.9949 11.6605 17.9403 12.0153 17.5209L18.8903 9.39594Z" fill="#4C9338"/>
</svg>