<svg width="26" height="25" viewBox="0 0 26 25" fill="none" xmlns="http://www.w3.org/2000/svg">
<path fill-rule="evenodd" clip-rule="evenodd" d="M10.745 2.0437C11.5026 0.652092 13.5005 0.652101 14.2581 2.04372L24.7568 21.3282C25.4823 22.6609 24.5176 24.2845 23.0002 24.2845H2.00282C0.485409 24.2845 -0.479284 22.6609 0.246261 21.3282L10.745 2.0437ZM11.5 7C11.5 6.44772 11.9477 6 12.5 6C13.0523 6 13.5 6.44772 13.5 7V14C13.5 14.5523 13.0523 15 12.5 15C11.9477 15 11.5 14.5523 11.5 14V7ZM12.5 18C11.6716 18 11 18.6716 11 19.5C11 20.3284 11.6716 21 12.5 21C13.3284 21 14 20.3284 14 19.5C14 18.6716 13.3284 18 12.5 18Z" fill="#F69C00"/>
</svg>