<svg width="22" height="20" viewBox="0 0 22 20" fill="none" xmlns="http://www.w3.org/2000/svg">
<path d="M21.12 1.8H16.5V0.2C16.5 0.09 16.401 0 16.28 0H14.74C14.619 0 14.52 0.09 14.52 0.2V1.8H7.48V0.2C7.48 0.09 7.381 0 7.26 0H5.72C5.599 0 5.5 0.09 5.5 0.2V1.8H0.88C0.39325 1.8 0 2.1575 0 2.6V19.2C0 19.6425 0.39325 20 0.88 20H21.12C21.6068 20 22 19.6425 22 19.2V2.6C22 2.1575 21.6068 1.8 21.12 1.8ZM20.02 18.2H1.98V8.7H20.02V18.2ZM1.98 7V3.6H5.5V4.8C5.5 4.91 5.599 5 5.72 5H7.26C7.381 5 7.48 4.91 7.48 4.8V3.6H14.52V4.8C14.52 4.91 14.619 5 14.74 5H16.28C16.401 5 16.5 4.91 16.5 4.8V3.6H20.02V7H1.98Z" fill="white"/>
</svg>